<svg width="178" height="58" viewBox="0 0 178 58" fill="none" xmlns="http://www.w3.org/2000/svg">
<g clip-path="url(#clip0_781_12570)">
<path d="M163.491 0.000187885H14.1539C13.6095 0.000187885 13.0717 0.000187886 12.5288 0.00307843C12.0743 0.00596898 11.6235 0.014366 11.1647 0.0214334C10.1679 0.0328537 9.17341 0.118232 8.18994 0.276828C7.20786 0.438875 6.25654 0.744381 5.36815 1.18301C4.48086 1.62536 3.67011 2.20013 2.96532 2.8865C2.25684 3.57093 1.66626 4.36204 1.2163 5.22942C0.765094 6.09506 0.452228 7.02268 0.288506 7.98023C0.123227 8.93658 0.0342887 9.90395 0.0224896 10.8737C0.00871381 11.3168 0.00725904 11.7614 0 12.2046V45.611C0.00725904 46.0597 0.00871381 46.4945 0.0224896 46.9434C0.0342924 47.913 0.12323 48.8804 0.288506 49.8367C0.451776 50.7948 0.76466 51.7229 1.2163 52.5889C1.66605 53.4535 2.25672 54.2414 2.96532 54.922C3.66744 55.6114 4.47871 56.1866 5.36815 56.6255C6.25653 57.0653 7.20775 57.3727 8.18994 57.5372C9.17358 57.6945 10.1679 57.7799 11.1647 57.7927C11.6235 57.8026 12.0743 57.8082 12.5288 57.8082C13.0717 57.8111 13.6096 57.8111 14.1539 57.8111H163.491C164.025 57.8111 164.567 57.8111 165.1 57.8082C165.553 57.8082 166.017 57.8026 166.469 57.7927C167.464 57.7806 168.456 57.6952 169.438 57.5372C170.423 57.3715 171.378 57.0643 172.271 56.6255C173.159 56.1863 173.97 55.6112 174.671 54.922C175.378 54.2387 175.97 53.4514 176.425 52.5889C176.873 51.7223 177.183 50.7942 177.344 49.8367C177.51 48.8802 177.602 47.9131 177.62 46.9434C177.626 46.4945 177.626 46.0597 177.626 45.611C177.637 45.0859 177.637 44.5637 177.637 44.0301V13.7825C177.637 13.2532 177.637 12.7282 177.626 12.2046C177.626 11.7614 177.626 11.3168 177.62 10.8736C177.602 9.90381 177.51 8.93665 177.344 7.98017C177.183 7.02317 176.873 6.09563 176.425 5.22936C175.509 3.4908 174.056 2.07564 172.271 1.18288C171.378 0.745323 170.423 0.439898 169.438 0.276697C168.456 0.117404 167.464 0.0319951 166.469 0.0212311C166.017 0.0141781 165.553 0.00570883 165.1 0.00289055C164.567 0 164.025 0 163.491 0V0.000187885Z" fill="black"/>
<path d="M12.5331 56.5473C12.0808 56.5473 11.6394 56.5417 11.1907 56.5318C10.2611 56.52 9.33366 56.4412 8.41601 56.2961C7.56035 56.1526 6.73145 55.8857 5.95664 55.5042C5.18894 55.1259 4.48873 54.6298 3.88284 54.035C3.26818 53.4472 2.75645 52.7654 2.36793 52.0167C1.97512 51.2631 1.70328 50.4553 1.56186 49.6216C1.40915 48.7256 1.32652 47.8197 1.3147 46.9117C1.30529 46.6069 1.29297 45.592 1.29297 45.592V12.2054C1.29297 12.2054 1.30609 11.2061 1.31478 10.9125C1.3261 10.0059 1.40824 9.10139 1.5605 8.20688C1.70217 7.37082 1.97423 6.56074 2.36725 5.80469C2.75434 5.05649 3.26323 4.3742 3.87419 3.78427C4.48445 3.18874 5.1869 2.69009 5.95591 2.30652C6.72894 1.92625 7.55628 1.66124 8.41021 1.52038C9.33087 1.37378 10.2615 1.29452 11.1943 1.28327L12.5338 1.26562H165.09L166.446 1.28398C167.37 1.29467 168.292 1.37323 169.204 1.51897C170.067 1.66159 170.903 1.92845 171.685 2.31076C173.225 3.08376 174.479 4.30671 175.27 5.80822C175.656 6.55905 175.924 7.36252 176.064 8.19136C176.218 9.09321 176.305 10.0048 176.322 10.9189C176.327 11.3282 176.327 11.7678 176.327 12.2054C176.338 12.7474 176.338 13.2632 176.338 13.7833V44.0309C176.338 44.556 176.338 45.0684 176.327 45.5849C176.327 46.0549 176.326 46.4855 176.321 46.9286C176.303 47.8263 176.219 48.7217 176.067 49.6074C175.928 50.4472 175.658 51.2612 175.265 52.021C174.874 52.7616 174.365 53.4375 173.758 54.0237C173.151 54.6217 172.45 55.1207 171.68 55.5015C170.901 55.8859 170.066 56.1538 169.204 56.2961C168.287 56.442 167.359 56.5208 166.43 56.5318C165.995 56.5417 165.539 56.5473 165.097 56.5473L163.488 56.5502L12.5331 56.5473Z" fill="white"/>
<path d="M37.1159 28.7464C37.1325 27.492 37.4747 26.262 38.1108 25.1709C38.7468 24.0799 39.656 23.1632 40.7537 22.5061C40.0563 21.5365 39.1364 20.7385 38.0669 20.1756C36.9974 19.6127 35.8078 19.3003 34.5926 19.2633C32.0003 18.9984 29.4873 20.7735 28.1663 20.7735C26.8198 20.7735 24.786 19.2896 22.5959 19.3335C21.1793 19.378 19.7987 19.7791 18.5887 20.4976C17.3786 21.2161 16.3803 22.2275 15.6911 23.4333C12.7057 28.4657 14.9326 35.8617 17.7924 39.9296C19.2232 41.9215 20.8955 44.1465 23.0836 44.0676C25.2248 43.9812 26.0245 42.7383 28.6091 42.7383C31.1697 42.7383 31.9199 44.0676 34.1525 44.0175C36.4501 43.9812 37.8976 42.0167 39.2783 40.0059C40.3064 38.5866 41.0975 37.018 41.6223 35.3581C40.2874 34.8084 39.1483 33.8883 38.347 32.7126C37.5456 31.5369 37.1174 30.1575 37.1159 28.7464Z" fill="black"/>
<path d="M32.9023 16.588C34.155 15.1238 34.7722 13.2419 34.6228 11.3418C32.7089 11.5375 30.9409 12.4281 29.6713 13.8361C29.0505 14.5239 28.575 15.3241 28.2721 16.191C27.9691 17.0578 27.8447 17.9743 27.9057 18.888C28.863 18.8976 29.8101 18.6956 30.6756 18.2972C31.5411 17.8988 32.3024 17.3144 32.9023 16.588Z" fill="black"/>
<path d="M62.7995 39.2243H55.773L54.0855 44.0753H51.1094L57.7648 26.1279H60.857L67.5124 44.0753H64.4855L62.7995 39.2243ZM56.5007 36.9859H62.0704L59.3247 29.1131H59.2478L56.5007 36.9859Z" fill="black"/>
<path d="M81.8827 37.5341C81.8827 41.6004 79.6473 44.2129 76.2739 44.2129C75.4194 44.2564 74.5695 44.0647 73.8216 43.6599C73.0738 43.255 72.4581 42.6533 72.0452 41.9236H71.9814V48.4047H69.2227V30.9909H71.893V33.1673H71.9437C72.3756 32.4411 73.0016 31.8424 73.7552 31.4351C74.5088 31.0278 75.3616 30.8269 76.2231 30.854C79.6342 30.854 81.8827 33.4792 81.8827 37.5341ZM79.0471 37.5341C79.0471 34.885 77.6409 33.1433 75.4954 33.1433C73.3876 33.1433 71.9698 34.9216 71.9698 37.5341C71.9698 40.1706 73.3876 41.9363 75.4954 41.9363C77.641 41.9363 79.0471 40.2073 79.0471 37.5341H79.0471Z" fill="black"/>
<path d="M96.6842 37.5341C96.6842 41.6004 94.4481 44.2129 91.0747 44.2129C90.2201 44.2564 89.3703 44.0647 88.6224 43.6599C87.8746 43.255 87.2589 42.6533 86.846 41.9236H86.7822V48.4047H84.0234V30.9909H86.6937V33.1673H86.7445C87.1764 32.4411 87.8024 31.8424 88.556 31.4351C89.3095 31.0278 90.1624 30.8269 91.0239 30.854C94.435 30.854 96.6842 33.4792 96.6842 37.5341ZM93.8479 37.5341C93.8479 34.885 92.4417 33.1433 90.2962 33.1433C88.1884 33.1433 86.7706 34.9216 86.7706 37.5341C86.7706 40.1706 88.1884 41.9363 90.2962 41.9363C92.4417 41.9363 93.8479 40.2073 93.8479 37.5341Z" fill="black"/>
<path d="M106.457 39.0752C106.661 40.8549 108.437 42.0235 110.864 42.0235C113.189 42.0235 114.862 40.8549 114.862 39.2501C114.862 37.857 113.853 37.0229 111.464 36.4513L109.075 35.891C105.69 35.0949 104.119 33.5537 104.119 31.0527C104.119 27.9561 106.89 25.8291 110.825 25.8291C114.721 25.8291 117.392 27.9561 117.482 31.0527H114.697C114.53 29.2616 113.009 28.1805 110.787 28.1805C108.565 28.1805 107.044 29.2743 107.044 30.8664C107.044 32.1352 108.015 32.8819 110.391 33.4534L112.422 33.939C116.204 34.8098 117.774 36.289 117.774 38.9141C117.774 42.2719 115.029 44.3748 110.659 44.3748C106.571 44.3748 103.811 42.3212 103.633 39.075L106.457 39.0752Z" fill="black"/>
<path d="M123.726 27.8936V30.9902H126.282V33.1171H123.726V40.3308C123.726 41.4515 124.238 41.9737 125.361 41.9737C125.665 41.9685 125.967 41.9478 126.269 41.9115V44.0258C125.764 44.1177 125.25 44.1593 124.736 44.15C122.015 44.15 120.954 43.155 120.954 40.6173V33.1171H119V30.9902H120.954V27.8936H123.726Z" fill="black"/>
<path d="M127.762 37.5342C127.762 33.4172 130.252 30.8301 134.136 30.8301C138.033 30.8301 140.512 33.4171 140.512 37.5342C140.512 41.6626 138.046 44.2384 134.136 44.2384C130.228 44.2384 127.762 41.6626 127.762 37.5342ZM137.701 37.5342C137.701 34.71 136.371 33.0432 134.136 33.0432C131.901 33.0432 130.571 34.7227 130.571 37.5342C130.571 40.3697 131.901 42.0239 134.136 42.0239C136.371 42.0239 137.701 40.3697 137.701 37.5342H137.701Z" fill="black"/>
<path d="M142.785 30.9908H145.416V33.2179H145.48C145.658 32.5223 146.077 31.9076 146.665 31.4771C147.254 31.0466 147.977 30.8265 148.713 30.8538C149.031 30.8528 149.348 30.8864 149.658 30.9541V33.4663C149.257 33.3469 148.838 33.2921 148.419 33.304C148.018 33.2882 147.618 33.357 147.247 33.5057C146.877 33.6544 146.543 33.8795 146.27 34.1655C145.997 34.4515 145.791 34.7917 145.665 35.1626C145.54 35.5336 145.499 35.9265 145.544 36.3145V44.0758H142.785L142.785 30.9908Z" fill="black"/>
<path d="M162.381 40.2328C162.01 42.6082 159.634 44.2384 156.594 44.2384C152.685 44.2384 150.258 41.688 150.258 37.5963C150.258 33.492 152.698 30.8301 156.478 30.8301C160.197 30.8301 162.535 33.317 162.535 37.2844V38.2046H153.043V38.3669C152.999 38.8485 153.061 39.3336 153.224 39.7901C153.388 40.2466 153.649 40.664 153.991 41.0145C154.333 41.3651 154.748 41.6408 155.208 41.8233C155.667 42.0058 156.162 42.0911 156.658 42.0733C157.31 42.1327 157.964 41.9857 158.523 41.6541C159.083 41.3225 159.517 40.824 159.762 40.2328L162.381 40.2328ZM153.056 36.3275H159.775C159.8 35.8945 159.732 35.4612 159.577 35.0547C159.421 34.6483 159.181 34.2776 158.872 33.9657C158.562 33.6539 158.19 33.4077 157.778 33.2426C157.366 33.0775 156.924 32.9971 156.478 33.0065C156.029 33.0038 155.584 33.0879 155.168 33.2537C154.752 33.4195 154.374 33.6639 154.056 33.9727C153.738 34.2814 153.486 34.6485 153.314 35.0526C153.142 35.4568 153.055 35.8901 153.056 36.3275V36.3275Z" fill="black"/>
<path d="M56.1526 12.6211C56.7309 12.5807 57.3113 12.6658 57.8518 12.8702C58.3923 13.0746 58.8795 13.3932 59.2782 13.8032C59.6769 14.2131 59.9772 14.704 60.1574 15.2406C60.3376 15.7772 60.3933 16.3461 60.3204 16.9061C60.3204 19.6612 58.791 21.2448 56.1526 21.2448H52.9531V12.6211H56.1526ZM54.3289 20.0252H55.9989C56.4122 20.0493 56.8258 19.9833 57.2095 19.8321C57.5933 19.6809 57.9377 19.4483 58.2175 19.1512C58.4973 18.8541 58.7055 18.5 58.8271 18.1147C58.9486 17.7293 58.9803 17.3225 58.92 16.9237C58.9759 16.5265 58.941 16.1221 58.8176 15.7396C58.6942 15.3571 58.4855 15.0059 58.2063 14.7112C57.9271 14.4164 57.5844 14.1855 57.2028 14.0348C56.8212 13.8842 56.4101 13.8176 55.9989 13.8398H54.3289V20.0252Z" fill="black"/>
<path d="M61.8782 17.9861C61.8362 17.5584 61.8864 17.1269 62.0257 16.7192C62.165 16.3115 62.3903 15.9367 62.6871 15.6188C62.9839 15.3009 63.3457 15.0468 63.7493 14.873C64.1528 14.6992 64.5892 14.6094 65.0305 14.6094C65.4718 14.6094 65.9082 14.6992 66.3118 14.873C66.7153 15.0468 67.0771 15.3009 67.3739 15.6188C67.6707 15.9367 67.896 16.3115 68.0353 16.7192C68.1746 17.1269 68.2248 17.5584 68.1828 17.9861C68.2256 18.4142 68.176 18.8463 68.0371 19.2546C67.8981 19.663 67.673 20.0385 67.3761 20.357C67.0792 20.6756 66.7172 20.9301 66.3132 21.1044C65.9092 21.2786 65.4723 21.3686 65.0305 21.3686C64.5887 21.3686 64.1518 21.2786 63.7478 21.1044C63.3439 20.9301 62.9818 20.6756 62.6849 20.357C62.388 20.0385 62.1629 19.663 62.024 19.2546C61.885 18.8463 61.8354 18.4142 61.8782 17.9861ZM66.8259 17.9861C66.8259 16.5754 66.175 15.7504 65.0327 15.7504C63.886 15.7504 63.2409 16.5754 63.2409 17.9861C63.2409 19.4081 63.886 20.2267 65.0327 20.2267C66.175 20.2267 66.8259 19.4024 66.8259 17.9861H66.8259Z" fill="black"/>
<path d="M76.5609 21.2443H75.1924L73.8109 16.4512H73.7065L72.3308 21.2443H70.9753L69.1328 14.7363H70.4709L71.6683 19.7023H71.7669L73.1412 14.7363H74.4067L75.781 19.7023H75.8854L77.077 14.7363H78.3962L76.5609 21.2443Z" fill="black"/>
<path d="M79.9453 14.7355H81.2152V15.7694H81.3138C81.481 15.3981 81.7631 15.0868 82.1207 14.879C82.4782 14.6711 82.8935 14.5771 83.3086 14.6099C83.6338 14.5861 83.9604 14.6339 84.2641 14.7496C84.5678 14.8654 84.8409 15.0462 85.0631 15.2787C85.2853 15.5111 85.4509 15.7893 85.5477 16.0925C85.6445 16.3958 85.67 16.7163 85.6222 17.0305V21.2434H84.303V17.353C84.303 16.3071 83.8362 15.787 82.8606 15.787C82.6398 15.777 82.4193 15.8136 82.2144 15.8943C82.0095 15.975 81.8249 16.0979 81.6733 16.2545C81.5217 16.4112 81.4066 16.5979 81.3361 16.8018C81.2655 17.0058 81.2411 17.2222 81.2645 17.4363V21.2435H79.9453L79.9453 14.7355Z" fill="black"/>
<path d="M87.7227 12.1953H89.0419V21.2438H87.7227V12.1953Z" fill="black"/>
<path d="M90.8782 17.9862C90.8362 17.5585 90.8864 17.127 91.0258 16.7193C91.1651 16.3116 91.3904 15.9368 91.6873 15.6188C91.9841 15.3009 92.3459 15.0468 92.7495 14.873C93.1531 14.6992 93.5895 14.6094 94.0308 14.6094C94.4721 14.6094 94.9086 14.6992 95.3122 14.873C95.7157 15.0468 96.0776 15.3009 96.3744 15.6188C96.6712 15.9368 96.8965 16.3116 97.0359 16.7193C97.1752 17.127 97.2255 17.5585 97.1835 17.9862C97.2263 18.4143 97.1766 18.8465 97.0376 19.2548C96.8986 19.6631 96.6734 20.0386 96.3765 20.3571C96.0796 20.6757 95.7175 20.9303 95.3136 21.1044C94.9096 21.2786 94.4727 21.3686 94.0308 21.3686C93.589 21.3686 93.1521 21.2786 92.7481 21.1044C92.3441 20.9303 91.982 20.6757 91.6851 20.3571C91.3882 20.0386 91.163 19.6631 91.0241 19.2548C90.8851 18.8465 90.8354 18.4143 90.8782 17.9862ZM95.8259 17.9862C95.8259 16.5755 95.175 15.7506 94.0326 15.7506C92.886 15.7506 92.2409 16.5755 92.2409 17.9862C92.2409 19.4082 92.886 20.2268 94.0326 20.2268C95.175 20.2268 95.8259 19.4025 95.8259 17.9862H95.8259Z" fill="black"/>
<path d="M98.5742 19.4025C98.5742 18.231 99.4701 17.5557 101.06 17.4597L102.871 17.3581V16.7963C102.871 16.109 102.404 15.7208 101.503 15.7208C100.766 15.7208 100.256 15.9841 100.109 16.4442H98.8323C98.9671 15.3264 100.047 14.6094 101.563 14.6094C103.239 14.6094 104.184 15.4216 104.184 16.7963V21.2429H102.915V20.3284H102.81C102.598 20.6564 102.301 20.9239 101.948 21.1034C101.595 21.2829 101.2 21.3681 100.802 21.3502C100.522 21.3786 100.238 21.3494 99.9698 21.2646C99.7015 21.1798 99.4544 21.0411 99.2444 20.8576C99.0345 20.6741 98.8664 20.4498 98.751 20.1992C98.6355 19.9486 98.5753 19.6772 98.5742 19.4025ZM102.871 18.8464V18.3023L101.239 18.4039C100.318 18.4639 99.9007 18.7688 99.9007 19.3425C99.9007 19.9282 100.423 20.2691 101.14 20.2691C101.35 20.2898 101.563 20.2691 101.765 20.2083C101.967 20.1475 102.154 20.0477 102.315 19.915C102.477 19.7822 102.609 19.6192 102.705 19.4356C102.8 19.2521 102.857 19.0517 102.871 18.8464Z" fill="black"/>
<path d="M105.918 17.987C105.918 15.9306 107.004 14.6279 108.693 14.6279C109.11 14.6091 109.525 14.7066 109.888 14.9087C110.251 15.1109 110.547 15.4095 110.742 15.7696H110.841V12.1953H112.16V21.2438H110.896V20.2156H110.792C110.582 20.5733 110.275 20.8682 109.905 21.0683C109.535 21.2684 109.116 21.3662 108.693 21.351C106.992 21.3511 105.918 20.0484 105.918 17.987ZM107.281 17.987C107.281 19.3674 107.949 20.198 109.067 20.198C110.179 20.198 110.866 19.3554 110.866 17.9927C110.866 16.6363 110.171 15.7817 109.067 15.7817C107.956 15.7817 107.281 16.6179 107.281 17.987H107.281Z" fill="black"/>
<path d="M117.613 17.9861C117.571 17.5584 117.621 17.1269 117.76 16.7192C117.899 16.3115 118.125 15.9367 118.421 15.6188C118.718 15.3009 119.08 15.0468 119.484 14.873C119.887 14.6992 120.324 14.6094 120.765 14.6094C121.206 14.6094 121.643 14.6992 122.046 14.873C122.45 15.0468 122.811 15.3009 123.108 15.6188C123.405 15.9367 123.63 16.3115 123.77 16.7192C123.909 17.1269 123.959 17.5584 123.917 17.9861C123.96 18.4142 123.91 18.8463 123.771 19.2546C123.632 19.663 123.407 20.0385 123.11 20.357C122.814 20.6756 122.452 20.9301 122.048 21.1044C121.644 21.2786 121.207 21.3686 120.765 21.3686C120.323 21.3686 119.886 21.2786 119.482 21.1044C119.078 20.9301 118.716 20.6756 118.419 20.357C118.122 20.0385 117.897 19.663 117.758 19.2546C117.619 18.8463 117.57 18.4142 117.613 17.9861ZM122.56 17.9861C122.56 16.5754 121.909 15.7504 120.767 15.7504C119.62 15.7504 118.975 16.5754 118.975 17.9861C118.975 19.4081 119.62 20.2267 120.767 20.2267C121.909 20.2267 122.56 19.4024 122.56 17.9861Z" fill="black"/>
<path d="M125.688 14.7355H126.957V15.7694H127.056C127.223 15.3981 127.505 15.0868 127.863 14.879C128.22 14.6711 128.636 14.5771 129.051 14.6099C129.376 14.5861 129.703 14.6339 130.006 14.7496C130.31 14.8654 130.583 15.0462 130.805 15.2787C131.027 15.5111 131.193 15.7893 131.29 16.0925C131.387 16.3958 131.412 16.7163 131.364 17.0305V21.2434H130.045V17.353C130.045 16.3071 129.578 15.787 128.603 15.787C128.382 15.777 128.162 15.8136 127.957 15.8943C127.752 15.975 127.567 16.0979 127.415 16.2545C127.264 16.4112 127.149 16.5979 127.078 16.8018C127.008 17.0058 126.983 17.2222 127.007 17.4363V21.2435H125.688V14.7355Z" fill="black"/>
<path d="M138.823 13.1152V14.7652H140.271V15.847H138.823V19.1934C138.823 19.8751 139.112 20.1736 139.768 20.1736C139.937 20.1731 140.104 20.1632 140.271 20.144V21.2138C140.035 21.2551 139.795 21.277 139.554 21.2795C138.087 21.2795 137.503 20.777 137.503 19.5223V15.8469H136.441V14.7651H137.503V13.1152H138.823Z" fill="black"/>
<path d="M142.074 12.1953H143.382V15.7817H143.486C143.662 15.4069 143.951 15.0939 144.316 14.8852C144.681 14.6766 145.103 14.5826 145.524 14.6159C145.848 14.5987 146.171 14.6513 146.472 14.7699C146.772 14.8885 147.042 15.0701 147.261 15.3018C147.481 15.5336 147.646 15.8097 147.744 16.1105C147.841 16.4113 147.87 16.7294 147.826 17.0421V21.2438H146.506V17.3589C146.506 16.3194 146.009 15.793 145.077 15.793C144.85 15.7749 144.622 15.8052 144.408 15.8819C144.195 15.9586 144.001 16.0797 143.841 16.2369C143.681 16.394 143.558 16.5834 143.48 16.7917C143.403 17 143.373 17.2223 143.393 17.4429V21.2438H142.074L142.074 12.1953Z" fill="black"/>
<path d="M155.517 19.4859C155.337 20.0806 154.949 20.5951 154.42 20.9393C153.89 21.2835 153.253 21.4355 152.62 21.3687C152.18 21.38 151.742 21.2979 151.338 21.128C150.933 20.9581 150.571 20.7046 150.278 20.385C149.984 20.0654 149.765 19.6874 149.636 19.2772C149.508 18.867 149.472 18.4344 149.532 18.0095C149.474 17.5834 149.51 17.1499 149.638 16.7384C149.767 16.327 149.984 15.9472 150.277 15.6248C150.569 15.3024 150.929 15.0449 151.332 14.8698C151.735 14.6946 152.173 14.6058 152.614 14.6095C154.474 14.6095 155.596 15.8466 155.596 17.8903V18.3384H150.876V18.4104C150.856 18.6492 150.886 18.8896 150.967 19.1162C151.047 19.3427 151.175 19.5504 151.343 19.7259C151.51 19.9015 151.714 20.041 151.94 20.1355C152.166 20.23 152.41 20.2775 152.656 20.2748C152.972 20.3117 153.292 20.2564 153.575 20.1159C153.858 19.9754 154.092 19.7561 154.247 19.4858L155.517 19.4859ZM150.876 17.3885H154.253C154.269 17.1701 154.239 16.9507 154.163 16.7444C154.087 16.5382 153.968 16.3496 153.813 16.1908C153.658 16.0321 153.471 15.9066 153.263 15.8225C153.056 15.7384 152.832 15.6976 152.607 15.7026C152.379 15.6998 152.153 15.7415 151.941 15.8253C151.73 15.909 151.538 16.0331 151.377 16.1902C151.215 16.3474 151.088 16.5343 151.002 16.7401C150.916 16.9459 150.873 17.1664 150.876 17.3885H150.876Z" fill="black"/>
</g>
<defs>
<clipPath id="clip0_781_12570">
<rect width="177.637" height="57.8109" fill="white"/>
</clipPath>
</defs>
</svg>
