<svg width="178" height="59" viewBox="0 0 178 59" fill="none" xmlns="http://www.w3.org/2000/svg">
<g clip-path="url(#clip0_781_12569)">
<path d="M171.407 0.810547H6.59259C2.9516 0.810547 0 4.05648 0 8.06055V51.5605C0 55.5646 2.9516 58.8105 6.59259 58.8105H171.407C175.048 58.8105 178 55.5646 178 51.5605V8.06055C178 4.05648 175.048 0.810547 171.407 0.810547Z" fill="white"/>
<path d="M171.407 1.97055C172.876 1.97055 174.285 2.61217 175.323 3.75427C176.362 4.89636 176.945 6.44538 176.945 8.06055V51.5605C176.945 53.1757 176.362 54.7247 175.323 55.8668C174.285 57.0089 172.876 57.6506 171.407 57.6506H6.59259C5.12388 57.6506 3.71533 57.0089 2.67679 55.8668C1.63826 54.7247 1.05482 53.1757 1.05482 51.5605V8.06055C1.05482 6.44538 1.63826 4.89636 2.67679 3.75427C3.71533 2.61217 5.12388 1.97055 6.59259 1.97055H171.407ZM171.407 0.810547H6.59259C4.84413 0.810547 3.16728 1.57438 1.93093 2.93402C0.694575 4.29366 0 6.13773 0 8.06055V51.5605C0 53.4834 0.694575 55.3274 1.93093 56.6871C3.16728 58.0467 4.84413 58.8105 6.59259 58.8105H171.407C173.156 58.8105 174.833 58.0467 176.069 56.6871C177.305 55.3274 178 53.4834 178 51.5605V8.06055C178 6.13773 177.305 4.29366 176.069 2.93402C174.833 1.57438 173.156 0.810547 171.407 0.810547Z" fill="black"/>
<path d="M62.5255 15.6586C62.5471 16.1904 62.4707 16.7214 62.3007 17.2198C62.1308 17.7182 61.8708 18.1736 61.5366 18.5586C61.162 18.9839 60.71 19.3174 60.2101 19.5373C59.7102 19.7572 59.1738 19.8585 58.6358 19.8346C58.0948 19.8479 57.557 19.7389 57.0558 19.5144C56.5546 19.29 56.1006 18.9548 55.7219 18.5296C54.9536 17.6654 54.5234 16.5047 54.5234 15.2961C54.5234 14.0875 54.9536 12.9269 55.7219 12.0626C56.3093 11.4314 57.0532 11.0052 57.8602 10.8375C58.6672 10.6698 59.5013 10.7681 60.2576 11.1201C60.7331 11.335 61.1572 11.6675 61.497 12.0916L60.7982 12.8601C60.5364 12.5132 60.2046 12.2383 59.8292 12.057C59.4539 11.8758 59.0452 11.7933 58.6358 11.8161C58.119 11.82 57.6109 11.9631 57.156 12.2329C56.701 12.5026 56.3131 12.8908 56.0261 13.3634C55.7391 13.8361 55.5617 14.3789 55.5095 14.9444C55.4572 15.5099 55.5318 16.0808 55.7265 16.6073C55.9212 17.1338 56.2303 17.5998 56.6266 17.9646C57.023 18.3294 57.4945 18.5819 58.0001 18.7C58.5056 18.8182 59.0298 18.7983 59.5268 18.6422C60.0237 18.4861 60.4784 18.1985 60.8509 17.8046C61.2537 17.319 61.4872 16.6924 61.5102 16.0356H58.6358V14.9916H62.4727C62.5027 15.2125 62.5204 15.4353 62.5255 15.6586Z" fill="black" stroke="black" stroke-width="0.411304" stroke-miterlimit="10"/>
<path d="M68.565 12.0339H65.005V14.7889H68.2486V15.8329H65.005V18.5879H68.565V19.6609H63.9766V10.9609H68.565V12.0339Z" fill="black" stroke="black" stroke-width="0.411304" stroke-miterlimit="10"/>
<path d="M72.8866 19.6609H71.8714V12.0339H69.6562V10.9609H75.1545V12.0339H72.8866V19.6609Z" fill="black" stroke="black" stroke-width="0.411304" stroke-miterlimit="10"/>
<path d="M79.0312 19.6609V10.9609H80.0465V19.6609H79.0312Z" fill="black" stroke="black" stroke-width="0.411304" stroke-miterlimit="10"/>
<path d="M84.5585 19.6609H83.5432V12.0339H81.3281V10.9609H86.7604V12.0339H84.5585V19.6609Z" fill="black" stroke="black" stroke-width="0.411304" stroke-miterlimit="10"/>
<path d="M97.0556 18.5285C96.6748 18.9476 96.2226 19.2801 95.7249 19.507C95.2272 19.7338 94.6937 19.8506 94.1549 19.8506C93.6161 19.8506 93.0826 19.7338 92.5849 19.507C92.0872 19.2801 91.635 18.9476 91.2542 18.5285C90.5088 17.6571 90.0938 16.5058 90.0938 15.3095C90.0937 14.1131 90.5088 12.9619 91.2542 12.0905C91.6268 11.6595 92.0775 11.3194 92.5772 11.0921C93.0768 10.8648 93.6144 10.7554 94.1549 10.771C94.6947 10.7616 95.2305 10.8738 95.7294 11.1007C96.2283 11.3277 96.6796 11.6645 97.0556 12.0905C97.4348 12.5146 97.7328 13.018 97.9321 13.5708C98.1314 14.1237 98.2279 14.7149 98.2159 15.3095C98.2332 15.9048 98.1392 16.4977 97.9396 17.0514C97.74 17.6051 97.4391 18.1079 97.0556 18.5285ZM92.0057 17.8035C92.2866 18.1165 92.6212 18.3651 92.9902 18.5347C93.3591 18.7043 93.755 18.7917 94.1549 18.7917C94.5548 18.7917 94.9507 18.7043 95.3196 18.5347C95.6886 18.3651 96.0232 18.1165 96.3041 17.8035C96.873 17.1236 97.1888 16.2334 97.1888 15.3095C97.1888 14.3855 96.873 13.4954 96.3041 12.8155C96.0232 12.5025 95.6886 12.2539 95.3196 12.0843C94.9507 11.9146 94.5548 11.8273 94.1549 11.8273C93.755 11.8273 93.3591 11.9146 92.9902 12.0843C92.6212 12.2539 92.2866 12.5025 92.0057 12.8155C91.4368 13.4954 91.121 14.3855 91.121 15.3095C91.121 16.2334 91.4368 17.1236 92.0057 17.8035Z" fill="black" stroke="black" stroke-width="0.411304" stroke-miterlimit="10"/>
<path d="M99.6523 19.6609V10.9609H100.879L104.729 17.7324V16.0504V10.9609H105.744V19.6609H104.689L100.668 12.5704V14.2379V19.6609H99.6523Z" fill="black" stroke="black" stroke-width="0.411304" stroke-miterlimit="10"/>
<path d="M89.8466 32.3476C88.7357 32.3505 87.6505 32.7156 86.7283 33.3967C85.8061 34.0778 85.0882 35.0444 84.6655 36.1742C84.2428 37.304 84.1342 38.5463 84.3535 39.7439C84.5728 40.9416 85.1101 42.0408 85.8974 42.9027C86.6848 43.7645 87.6869 44.3502 88.777 44.5857C89.8671 44.8213 90.9962 44.696 92.0215 44.2259C93.0469 43.7557 93.9224 42.9617 94.5374 41.9443C95.1525 40.9269 95.4793 39.7318 95.4767 38.5101C95.4875 37.6951 95.349 36.8861 95.0695 36.1312C94.7901 35.3763 94.3753 34.6909 93.85 34.1159C93.3247 33.5409 92.6995 33.0881 92.0118 32.7843C91.324 32.4805 90.5877 32.332 89.8466 32.3476ZM89.8466 42.2511C89.1657 42.3035 88.4862 42.1294 87.8965 41.7515C87.3068 41.3735 86.8341 40.8092 86.5398 40.1319C86.2456 39.4546 86.1434 38.6956 86.2467 37.9536C86.3499 37.2116 86.6537 36.5209 87.1186 35.9712C87.5835 35.4216 88.188 35.0385 88.8535 34.8718C89.519 34.705 90.2147 34.7622 90.8503 35.0361C91.4858 35.3099 92.0317 35.7876 92.4171 36.4072C92.8025 37.0268 93.0094 37.7595 93.0111 38.5101C93.0323 38.9858 92.9668 39.4612 92.8182 39.9086C92.6697 40.3559 92.4413 40.7659 92.1463 41.1146C91.8514 41.4633 91.496 41.7435 91.101 41.9387C90.7061 42.1339 90.2795 42.2401 89.8466 42.2511ZM77.5581 32.3476C76.4471 32.3505 75.3619 32.7156 74.4397 33.3967C73.5175 34.0778 72.7996 35.0444 72.3769 36.1742C71.9542 37.304 71.8456 38.5463 72.0649 39.7439C72.2842 40.9416 72.8215 42.0408 73.6088 42.9027C74.3962 43.7645 75.3983 44.3502 76.4884 44.5857C77.5785 44.8213 78.7076 44.696 79.7329 44.2259C80.7583 43.7557 81.6338 42.9617 82.2488 41.9443C82.8639 40.9269 83.1907 39.7318 83.1881 38.5101C83.1989 37.6951 83.0604 36.8861 82.7809 36.1312C82.5015 35.3763 82.0867 34.6909 81.5614 34.1159C81.0361 33.5409 80.4109 33.0881 79.7232 32.7843C79.0354 32.4805 78.2991 32.332 77.5581 32.3476ZM77.5581 42.2511C76.8771 42.3035 76.1977 42.1294 75.6079 41.7515C75.0182 41.3735 74.5455 40.8092 74.2512 40.1319C73.957 39.4546 73.8549 38.6956 73.9581 37.9536C74.0613 37.2116 74.3651 36.5209 74.83 35.9712C75.2949 35.4216 75.8994 35.0385 76.5649 34.8718C77.2304 34.705 77.9262 34.7622 78.5617 35.0361C79.1972 35.3099 79.7432 35.7876 80.1285 36.4072C80.5139 37.0268 80.7208 37.7595 80.7225 38.5101C80.7437 38.9858 80.6782 39.4612 80.5296 39.9086C80.3811 40.3559 80.1527 40.7659 79.8577 41.1146C79.5628 41.4633 79.2074 41.7435 78.8124 41.9387C78.4175 42.1339 77.9909 42.2401 77.5581 42.2511ZM62.9489 34.2471V36.8571H68.6449C68.5556 38.0865 68.0909 39.2464 67.3264 40.1486C66.755 40.7888 66.0678 41.29 65.3092 41.6197C64.5506 41.9494 63.7375 42.1003 62.9225 42.0626C61.244 42.0626 59.6342 41.3294 58.4473 40.0241C57.2604 38.7189 56.5936 36.9486 56.5936 35.1026C56.5936 33.2567 57.2604 31.4864 58.4473 30.1812C59.6342 28.8759 61.244 28.1426 62.9225 28.1426C64.5317 28.1163 66.0855 28.7884 67.2472 30.0131L68.9218 28.1716C68.1359 27.3169 67.2028 26.6432 66.1772 26.19C65.1516 25.7369 64.054 25.5134 62.9489 25.5326C61.7767 25.4825 60.6074 25.6931 59.511 26.1517C58.4146 26.6104 57.4137 27.3078 56.5682 28.2021C55.7228 29.0964 55.0502 30.1692 54.5908 31.3561C54.1313 32.5431 53.8945 33.8199 53.8945 35.1099C53.8945 36.3999 54.1313 37.6767 54.5908 38.8637C55.0502 40.0506 55.7228 41.1234 56.5682 42.0177C57.4137 42.912 58.4146 43.6093 59.511 44.068C60.6074 44.5267 61.7767 44.7373 62.9489 44.6871C64.0768 44.7367 65.2014 44.5233 66.249 44.061C67.2966 43.5987 68.2434 42.8979 69.0272 42.0046C70.4118 40.3319 71.1496 38.132 71.0841 35.8711C71.0888 35.327 71.0491 34.7835 70.9655 34.2471H62.9489ZM122.691 36.2771C122.347 35.1646 121.704 34.1932 120.847 33.4915C119.99 32.7898 118.959 32.3909 117.892 32.3476C117.17 32.3461 116.456 32.5072 115.794 32.8211C115.132 33.135 114.535 33.5949 114.041 34.1725C113.546 34.7501 113.165 35.433 112.92 36.1791C112.675 36.9252 112.572 37.7185 112.617 38.5101C112.606 39.8338 112.985 41.1259 113.696 42.1935C114.408 43.2611 115.414 44.047 116.565 44.4336C117.717 44.8202 118.951 44.787 120.083 44.3387C121.216 43.8905 122.186 43.0513 122.849 41.9466L120.937 40.4966C120.652 41.019 120.248 41.4504 119.765 41.748C119.281 42.0456 118.736 42.1991 118.182 42.1931C117.61 42.2191 117.045 42.0543 116.56 41.7205C116.075 41.3867 115.694 40.8994 115.465 40.3226L122.968 36.9151L122.691 36.2771ZM115.044 38.3361C115.017 37.8857 115.072 37.434 115.206 37.0074C115.34 36.5808 115.55 36.1878 115.824 35.8516C116.098 35.5154 116.43 35.2426 116.801 35.0493C117.172 34.8559 117.574 34.7459 117.984 34.7256C118.409 34.6971 118.832 34.8071 119.2 35.0418C119.568 35.2766 119.865 35.6256 120.054 36.0451L115.044 38.3361ZM108.952 44.3101H111.418V26.1851H108.952V44.3101ZM104.917 33.7251H104.825C104.457 33.2638 104.002 32.8955 103.492 32.6452C102.983 32.3949 102.43 32.2687 101.872 32.2751C100.431 32.352 99.0719 33.0356 98.0768 34.1842C97.0817 35.3328 96.5267 36.8584 96.5267 38.4449C96.5267 40.0313 97.0817 41.557 98.0768 42.7056C99.0719 43.8542 100.431 44.5378 101.872 44.6146C102.431 44.627 102.985 44.5034 103.496 44.2527C104.006 44.0021 104.46 43.6305 104.825 43.1646H104.917V44.0491C104.917 46.4126 103.77 47.6741 101.924 47.6741C101.308 47.6592 100.709 47.4432 100.204 47.0533C99.6995 46.6635 99.3115 46.1175 99.0895 45.4846L96.9535 46.4561C97.3484 47.5469 98.035 48.4802 98.9225 49.1326C99.8101 49.7851 100.857 50.1259 101.924 50.1101C104.812 50.1101 107.198 48.2396 107.198 43.6866V32.7101H104.917V33.7251ZM102.082 42.2511C101.219 42.1919 100.408 41.7728 99.815 41.0791C99.2223 40.3854 98.8924 39.4693 98.8924 38.5174C98.8924 37.5655 99.2223 36.6494 99.815 35.9557C100.408 35.262 101.219 34.8429 102.082 34.7836C102.505 34.8037 102.919 34.9169 103.301 35.1166C103.682 35.3163 104.023 35.5984 104.304 35.9461C104.584 36.2937 104.798 36.6999 104.933 37.1404C105.068 37.5809 105.121 38.0467 105.089 38.5101C105.125 38.9751 105.075 39.4433 104.941 39.8864C104.808 40.3295 104.594 40.7382 104.313 41.0879C104.032 41.4376 103.69 41.721 103.306 41.921C102.923 42.1209 102.507 42.2332 102.082 42.2511ZM134.241 26.1851H128.334V44.3101H130.8V37.4371H134.241C134.944 37.4927 135.649 37.3884 136.314 37.1308C136.978 36.8732 137.587 36.4679 138.103 35.94C138.619 35.4122 139.03 34.7731 139.311 34.0628C139.593 33.3524 139.738 32.5859 139.738 31.8111C139.738 31.0364 139.593 30.2699 139.311 29.5595C139.03 28.8492 138.619 28.2101 138.103 27.6823C137.587 27.1544 136.978 26.7491 136.314 26.4915C135.649 26.2339 134.944 26.1296 134.241 26.1851ZM134.241 34.8851H130.8V28.7081H134.294C134.664 28.7081 135.031 28.7884 135.374 28.9443C135.716 29.1003 136.027 29.3288 136.289 29.617C136.551 29.9051 136.759 30.2472 136.901 30.6237C137.043 31.0001 137.116 31.4036 137.116 31.8111C137.116 32.2186 137.043 32.6221 136.901 32.9986C136.759 33.3751 136.551 33.7172 136.289 34.0053C136.027 34.2934 135.716 34.522 135.374 34.6779C135.031 34.8339 134.664 34.9141 134.294 34.9141L134.241 34.8851ZM149.457 32.2896C148.559 32.2288 147.665 32.4586 146.884 32.9509C146.104 33.4431 145.472 34.1761 145.066 35.0591L147.242 36.0596C147.462 35.6238 147.791 35.2672 148.192 35.0331C148.592 34.7989 149.045 34.6972 149.496 34.7401C149.809 34.6999 150.127 34.7287 150.429 34.8247C150.732 34.9207 151.015 35.0821 151.26 35.2994C151.505 35.5167 151.709 35.7856 151.859 36.0904C152.009 36.3952 152.102 36.7298 152.133 37.0746V37.2486C151.341 36.7903 150.458 36.5514 149.562 36.5526C147.215 36.5526 144.816 38.0026 144.816 40.6416C144.839 41.2026 144.964 41.7526 145.185 42.2592C145.405 42.7657 145.716 43.2184 146.098 43.5904C146.481 43.9623 146.927 44.246 147.411 44.4244C147.895 44.6028 148.407 44.6725 148.916 44.6291C149.535 44.6668 150.152 44.5228 150.703 44.2119C151.255 43.9011 151.721 43.4345 152.054 42.8601H152.133V44.3101H154.507V37.3356C154.507 34.1601 152.318 32.3186 149.51 32.3186L149.457 32.2896ZM149.154 42.2221C148.349 42.2221 147.229 41.7726 147.229 40.6851C147.229 39.2351 148.626 38.7421 149.866 38.7421C150.649 38.7209 151.423 38.9312 152.107 39.3511C152.024 40.1386 151.685 40.8664 151.151 41.3996C150.618 41.9328 149.927 42.2353 149.206 42.2511L149.154 42.2221ZM163.156 32.7101L160.335 40.5691H160.256L157.328 32.7101H154.691L159.082 43.7011L156.577 49.8056H159.148L165.899 32.7101H163.156ZM141.005 44.3101H143.458V26.1851H141.005V44.3101Z" fill="black"/>
<path d="M13.766 11.7431C13.3315 12.3081 13.1098 13.0343 13.1463 13.7731V45.8471C13.1014 46.5872 13.3242 47.3167 13.766 47.8771L13.8583 47.9931L30.1947 30.0276V29.5926L13.8583 11.6416L13.766 11.7431Z" fill="url(#paint0_linear_781_12569)"/>
<path d="M35.6012 36.0175L30.1953 30.029V29.594L35.6012 23.6055L35.7199 23.6925L42.1938 27.7235C44.0398 28.869 44.0398 30.754 42.1938 31.914L35.7463 35.945L35.6012 36.0175Z" fill="url(#paint1_linear_781_12569)"/>
<path d="M35.7624 35.9295L30.1983 29.8105L13.7695 47.8775C14.1421 48.2423 14.619 48.4521 15.1175 48.4706C15.616 48.4892 16.1047 48.3152 16.4989 47.979L35.7624 35.9295Z" fill="url(#paint2_linear_781_12569)"/>
<path d="M35.7624 23.6924L16.4989 11.6574C16.1073 11.3165 15.619 11.1384 15.1198 11.1543C14.6206 11.1702 14.1425 11.3792 13.7695 11.7444L30.1983 29.8114L35.7624 23.6924Z" fill="url(#paint3_linear_781_12569)"/>
<path opacity="0.2" d="M35.6042 35.7998L16.4989 47.7623C16.1191 48.0775 15.6562 48.2481 15.1803 48.2481C14.7045 48.2481 14.2416 48.0775 13.8618 47.7623L13.7695 47.8638L13.8618 47.9798C14.2416 48.295 14.7045 48.4656 15.1803 48.4656C15.6562 48.4656 16.1191 48.295 16.4989 47.9798L35.7624 35.9303L35.6042 35.7998Z" fill="black"/>
<path opacity="0.12" d="M13.7635 47.6744C13.34 47.0993 13.1324 46.3678 13.1833 45.6299V45.8474C13.1385 46.5874 13.3612 47.317 13.803 47.8774L13.8953 47.7759L13.7635 47.6744Z" fill="black"/>
<path opacity="0.12" d="M42.1981 31.6955L35.6055 35.799L35.7241 35.9295L42.1981 31.8985C42.5802 31.7208 42.9117 31.4331 43.1577 31.0657C43.4036 30.6982 43.555 30.2646 43.5957 29.8105C43.5133 30.2232 43.3438 30.6087 43.1011 30.9361C42.8583 31.2636 42.549 31.5237 42.1981 31.6955Z" fill="black"/>
<path opacity="0.25" d="M16.4897 11.8596L42.1876 27.9256C42.5385 28.0974 42.8478 28.3575 43.0906 28.685C43.3334 29.0124 43.5028 29.3979 43.5852 29.8106C43.5445 29.3565 43.3932 28.9229 43.1472 28.5554C42.9012 28.188 42.5697 27.9003 42.1876 27.7226L16.4897 11.6566C14.6569 10.4966 13.1406 11.4536 13.1406 13.7736V13.9911C13.1802 11.6711 14.6569 10.7141 16.4897 11.8596Z" fill="white"/>
</g>
<defs>
<linearGradient id="paint0_linear_781_12569" x1="28.7444" y1="13.4396" x2="4.52288" y2="35.4648" gradientUnits="userSpaceOnUse">
<stop stop-color="#00A0FF"/>
<stop offset="0.01" stop-color="#00A1FF"/>
<stop offset="0.26" stop-color="#00BEFF"/>
<stop offset="0.51" stop-color="#00D2FF"/>
<stop offset="0.76" stop-color="#00DFFF"/>
<stop offset="1" stop-color="#00E3FF"/>
</linearGradient>
<linearGradient id="paint1_linear_781_12569" x1="44.6067" y1="29.8115" x2="12.7118" y2="29.8115" gradientUnits="userSpaceOnUse">
<stop stop-color="#FFE000"/>
<stop offset="0.41" stop-color="#FFBD00"/>
<stop offset="0.78" stop-color="#FFA500"/>
<stop offset="1" stop-color="#FF9C00"/>
</linearGradient>
<linearGradient id="paint2_linear_781_12569" x1="32.743" y1="33.1455" x2="-0.109089" y2="63.0056" gradientUnits="userSpaceOnUse">
<stop stop-color="#FF3A44"/>
<stop offset="1" stop-color="#C31162"/>
</linearGradient>
<linearGradient id="paint3_linear_781_12569" x1="9.62938" y1="1.07241" x2="24.2951" y2="14.4083" gradientUnits="userSpaceOnUse">
<stop stop-color="#32A071"/>
<stop offset="0.07" stop-color="#2DA771"/>
<stop offset="0.48" stop-color="#15CF74"/>
<stop offset="0.8" stop-color="#06E775"/>
<stop offset="1" stop-color="#00F076"/>
</linearGradient>
<clipPath id="clip0_781_12569">
<rect width="178" height="58" fill="white" transform="translate(0 0.810547)"/>
</clipPath>
</defs>
</svg>
