<svg width="104" height="104" viewBox="0 0 104 104" fill="none" xmlns="http://www.w3.org/2000/svg">
<path d="M26 0C22.425 0 19.5 2.925 19.5 6.5V97.5C19.5 101.075 22.425 104 26 104H91C94.575 104 97.5 101.075 97.5 97.5V26L71.5 0H26Z" fill="#E2E5E7"/>
<path d="M78 26H97.5L71.5 0V19.5C71.5 23.075 74.425 26 78 26Z" fill="#B0B7BD"/>
<path d="M97.5 45.5L78 26H97.5V45.5Z" fill="#CAD1D8"/>
<path d="M84.5 84.5C84.5 86.2875 83.0375 87.75 81.25 87.75H9.75C7.9625 87.75 6.5 86.2875 6.5 84.5V52C6.5 50.2125 7.9625 48.75 9.75 48.75H81.25C83.0375 48.75 84.5 50.2125 84.5 52V84.5Z" fill="#F15642"/>
<path d="M20.668 61.5782C20.668 60.7202 21.344 59.7842 22.4327 59.7842H28.4355C31.8155 59.7842 34.8575 62.0462 34.8575 66.3817C34.8575 70.4897 31.8155 72.7777 28.4355 72.7777H24.0967V76.2097C24.0967 77.3537 23.3687 78.0004 22.4327 78.0004C21.5747 78.0004 20.668 77.3537 20.668 76.2097V61.5782ZM24.0967 63.0569V69.5309H28.4355C30.1775 69.5309 31.5555 67.9937 31.5555 66.3817C31.5555 64.5649 30.1775 63.0569 28.4355 63.0569H24.0967Z" fill="white"/>
<path d="M39.9463 78.0008C39.0883 78.0008 38.1523 77.5328 38.1523 76.3921V61.6306C38.1523 60.6978 39.0883 60.0186 39.9463 60.0186H45.8971C57.7726 60.0186 57.5126 78.0008 46.1311 78.0008H39.9463ZM41.5843 63.1906V74.8321H45.8971C52.9138 74.8321 53.2258 63.1906 45.8971 63.1906H41.5843Z" fill="white"/>
<path d="M61.7237 63.3979V67.5286H68.3505C69.2865 67.5286 70.2225 68.4646 70.2225 69.3714C70.2225 70.2294 69.2865 70.9314 68.3505 70.9314H61.7237V76.3881C61.7237 77.2981 61.077 77.9969 60.167 77.9969C59.023 77.9969 58.3242 77.2981 58.3242 76.3881V61.6266C58.3242 60.6939 59.0262 60.0146 60.167 60.0146H69.2897C70.4337 60.0146 71.1097 60.6939 71.1097 61.6266C71.1097 62.4586 70.4337 63.3947 69.2897 63.3947H61.7237V63.3979Z" fill="white"/>
<path d="M81.25 87.75H19.5V91H81.25C83.0375 91 84.5 89.5375 84.5 87.75V84.5C84.5 86.2875 83.0375 87.75 81.25 87.75Z" fill="#CAD1D8"/>
</svg>
