<svg width="28" height="28" viewBox="0 0 28 28" fill="none" xmlns="http://www.w3.org/2000/svg">
<g clip-path="url(#clip0_781_12279)">
<mask id="mask0_781_12279" style="mask-type:luminance" maskUnits="userSpaceOnUse" x="0" y="0" width="28" height="28">
<path d="M0 1.90735e-06H28V28H0V1.90735e-06Z" fill="white"/>
</mask>
<g mask="url(#mask0_781_12279)">
<path d="M8.99954 16.1248C7.35952 16.2266 5.87595 16.3772 4.62109 16.5654" stroke="#2C362B" stroke-miterlimit="10" stroke-linecap="round" stroke-linejoin="round"/>
<path d="M23.4327 16.5742C22.1633 16.382 20.6566 16.2282 18.9883 16.1248" stroke="#2C362B" stroke-miterlimit="10" stroke-linecap="round" stroke-linejoin="round"/>
<path d="M24.2109 1.7723C26.3141 2.14784 27.5895 2.64041 27.5895 3.17969" stroke="#2C362B" stroke-miterlimit="10" stroke-linecap="round" stroke-linejoin="round"/>
<path d="M0.410156 3.17969C0.410156 2.00172 6.49469 1.04688 14 1.04688C17.128 1.04688 20.0092 1.21274 22.306 1.49143" stroke="#2C362B" stroke-miterlimit="10" stroke-linecap="round" stroke-linejoin="round"/>
<path d="M27.5898 3.17977V18.1095C27.5898 18.7121 25.9962 19.2568 23.4336 19.6445V4.71484C25.9962 4.32711 27.5898 3.78242 27.5898 3.17977Z" stroke="#2C362B" stroke-miterlimit="10" stroke-linecap="round" stroke-linejoin="round"/>
<path d="M0.410156 12.0345V3.17938C0.410156 3.78641 2.02672 4.33438 4.62109 4.72266V19.6523C2.02672 19.2641 0.410156 18.7161 0.410156 18.1091V14.0575" stroke="#2C362B" stroke-miterlimit="10" stroke-linecap="round" stroke-linejoin="round"/>
<path d="M18.9882 16.08C18.8512 16.3956 18.6701 16.7052 18.4306 17.0369C17.1403 18.8236 15.5329 20.0371 13.999 20.0371C12.4649 20.0371 10.8576 18.8236 9.56731 17.0369C9.33565 16.7162 9.15868 16.4161 9.02344 16.1112" stroke="#2C362B" stroke-miterlimit="10" stroke-linecap="round" stroke-linejoin="round"/>
<path d="M11.2913 21.0985L9.76172 21.5586" stroke="#2C362B" stroke-miterlimit="10" stroke-linecap="round" stroke-linejoin="round"/>
<path d="M16.7539 21.0985L18.1904 21.5342" stroke="#2C362B" stroke-miterlimit="10" stroke-linecap="round" stroke-linejoin="round"/>
<path d="M13.8316 23.4443C12.6867 23.4022 12.0367 22.9328 11.6747 22.4835C11.3754 22.1121 11.2462 21.632 11.3016 21.1583L11.5346 19.1643" stroke="#2C362B" stroke-miterlimit="10" stroke-linecap="round" stroke-linejoin="round"/>
<path d="M16.4687 19.1955L16.6976 21.1592C16.7528 21.6327 16.6235 22.1126 16.3245 22.4838C16.1722 22.6729 15.9688 22.8655 15.6992 23.0283" stroke="#2C362B" stroke-miterlimit="10" stroke-linecap="round" stroke-linejoin="round"/>
<path d="M4.3125 26.9258L4.73075 24.5779C4.98105 23.137 6.00677 21.9802 7.4071 21.5588L9.02235 21.0731C9.35447 20.9732 9.69408 21.2064 9.71896 21.5523C9.80198 22.7065 10.0849 25.1043 11.04 26.9258" stroke="#2C362B" stroke-miterlimit="10" stroke-linecap="round" stroke-linejoin="round"/>
<path d="M23.6846 26.9258L23.2663 24.5779C23.016 23.137 21.9903 21.9802 20.59 21.5588L18.9747 21.0731C18.6426 20.9732 18.303 21.2064 18.2781 21.5523C18.1951 22.7065 17.9122 25.1043 16.957 26.9258" stroke="#2C362B" stroke-miterlimit="10" stroke-linecap="round" stroke-linejoin="round"/>
<path d="M19.8242 7.22474C20.5192 8.47391 20.6992 9.99051 20.1946 11.432C20.1484 11.5642 20.0827 11.6975 20.0066 11.8291" stroke="#2C362B" stroke-miterlimit="10" stroke-linecap="round" stroke-linejoin="round"/>
<path d="M8.00773 11.8359C7.66544 11.1333 7.51953 10.3158 7.51953 9.52856C7.51953 7.40248 9.3182 5.15449 11.2786 6.11929C12.6604 4.65973 14.847 4.06468 16.899 4.77759C17.5422 5.00087 18.1156 5.33288 18.605 5.74512" stroke="#2C362B" stroke-miterlimit="10" stroke-linecap="round" stroke-linejoin="round"/>
<path d="M14.7296 10.4953C13.3072 10.1103 12.5364 9.22085 11.8058 8.41492C11.6683 8.26338 11.4174 8.31151 11.3479 8.5039C11.0501 9.32727 10.661 10.0118 9.93653 10.4378C9.90377 10.4571 9.87156 10.4782 9.83984 10.501" stroke="#2C362B" stroke-miterlimit="10" stroke-linecap="round" stroke-linejoin="round"/>
<path d="M8.25579 14.7666H7.00197C6.69884 14.7666 6.45312 14.5209 6.45312 14.2178V12.4065C6.45312 12.1034 6.69884 11.8577 7.00197 11.8577H8.23173" stroke="#2C362B" stroke-miterlimit="10" stroke-linecap="round" stroke-linejoin="round"/>
<path d="M19.7891 11.8577H20.9967C21.2999 11.8577 21.5456 12.1034 21.5456 12.4065V14.2178C21.5456 14.5209 21.2999 14.7666 20.9967 14.7666H19.8131" stroke="#2C362B" stroke-miterlimit="10" stroke-linecap="round" stroke-linejoin="round"/>
<path d="M19.7369 11.6107V15.0136C19.7369 15.6199 19.2455 16.1113 18.6392 16.1113H16.0967C15.6369 16.1113 15.217 15.8506 15.013 15.4386L15.0013 15.4148C14.9069 15.2244 14.7631 15.0696 14.5896 14.962C14.3451 14.8104 14.0417 14.7525 13.7378 14.8254C13.4097 14.9041 13.1392 15.1361 12.9895 15.4386C12.7856 15.8506 12.3656 16.1113 11.9059 16.1113H9.36337C8.7571 16.1113 8.26562 15.6199 8.26562 15.0136V11.6107C8.26562 11.0044 8.7571 10.5129 9.36337 10.5129H18.6392C19.2455 10.5129 19.7369 11.0044 19.7369 11.6107Z" stroke="#2C362B" stroke-miterlimit="10" stroke-linecap="round" stroke-linejoin="round"/>
<path d="M12.9492 17.4063C13.5828 17.9167 14.4689 17.9167 15.1025 17.4063" stroke="#2C362B" stroke-miterlimit="10" stroke-linecap="round" stroke-linejoin="round"/>
</g>
</g>
<defs>
<clipPath id="clip0_781_12279">
<rect width="28" height="28" fill="white"/>
</clipPath>
</defs>
</svg>
